<svg xmlns="http://www.w3.org/2000/svg" viewBox="0 0 653 97.8"><defs><style>.cls-1{fill:#fff;}</style></defs><title>logo-alt-white</title><g id="Layer_2" data-name="Layer 2"><g id="Layer_1-2" data-name="Layer 1"><path class="cls-1" d="M0,68.76V20.43H5.5V68.76c0,11.82,7.37,20.12,21.06,20.12s21.16-8.3,21.16-20.12V20.43h5.5V68.76c0,15.35-10.68,25.41-26.65,25.41S0,84.11,0,68.76"/><polygon class="cls-1" points="122.18 20.43 122.18 93.03 117.3 93.03 74.47 30.59 74.47 93.03 68.97 93.03 68.97 20.43 73.74 20.43 116.68 82.86 116.68 20.43 122.18 20.43"/><polygon class="cls-1" points="162.94 63.16 162.94 93.03 157.44 93.03 157.44 63.16 131 20.43 137.22 20.43 160.25 57.87 183.17 20.43 189.39 20.43 162.94 63.16"/><path class="cls-1" d="M228.1,75.69a26.64,26.64,0,0,1-27.26-27.26,27.4,27.4,0,0,1,41-23.65,24,24,0,0,1,9.4,9.71L239.76,41.2a11.69,11.69,0,0,0-4.7-5.06A13.66,13.66,0,0,0,228,34.28a13.35,13.35,0,0,0-9.91,4,13.87,13.87,0,0,0-3.92,10.17,14.14,14.14,0,0,0,3.92,10.12A13.43,13.43,0,0,0,228,62.47a14.16,14.16,0,0,0,7.18-1.81,11.38,11.38,0,0,0,4.7-5l11.57,6.61a25.17,25.17,0,0,1-9.65,9.81,26.85,26.85,0,0,1-13.68,3.61"/><path class="cls-1" d="M295.63,28.71V22.61h13.32V74.24H295.63V68.15q-6,7.54-16.83,7.54A23.62,23.62,0,0,1,261,67.84a27.58,27.58,0,0,1-7.33-19.41A27.45,27.45,0,0,1,261,29.12a23.48,23.48,0,0,1,17.76-8q10.84,0,16.83,7.54M271.05,59a15,15,0,0,0,20.45,0,14.27,14.27,0,0,0,4.13-10.53A13.93,13.93,0,0,0,291.5,38a14.71,14.71,0,0,0-20.45,0,14.11,14.11,0,0,0-4,10.43,14.46,14.46,0,0,0,4,10.53"/><path class="cls-1" d="M333.11,22.61V31.5a13.77,13.77,0,0,1,6-7.38,18.57,18.57,0,0,1,9.71-2.53V36.45a15.17,15.17,0,0,0-10.94,2.48q-4.75,3.2-4.75,10.64V74.25H319.79V22.61Z"/><path class="cls-1" d="M386.29,22.61V35.42H374.62V56.9A5.1,5.1,0,0,0,376,60.82a6.15,6.15,0,0,0,3.92,1.39,57.31,57.31,0,0,0,6.4-.05V74.25Q372.76,75.79,367,71.72T361.3,56.9V35.42h-9V22.61h9V12.18l13.32-4V22.61Z"/><path class="cls-1" d="M443.08,53.9H404.15q2.58,9.71,14.56,9.71,7.64,0,11.56-5.16L441,64.64q-7.64,11.05-22.51,11.05-12.81,0-20.55-7.75t-7.74-19.52A26.75,26.75,0,0,1,397.85,29q7.54-7.85,19.62-7.85,11.46,0,18.69,7.85a27.15,27.15,0,0,1,7.43,19.41,36.83,36.83,0,0,1-.52,5.47M403.95,43.58h26.33a12.53,12.53,0,0,0-12.8-10.43,14,14,0,0,0-8.88,2.74,13.07,13.07,0,0,0-4.65,7.69"/><path class="cls-1" d="M461.88,37.28q0,3.31,9.4,5.68a46.61,46.61,0,0,1,6,1.7,26.37,26.37,0,0,1,5.42,2.79,12.58,12.58,0,0,1,4.28,4.8,14.84,14.84,0,0,1,1.55,6.92q0,8-6,12.29t-14.77,4.23q-15.9,0-21.68-12.29l11.57-6.51q2.37,6.71,10.12,6.71,7.13,0,7.13-4.44,0-3.3-9.4-5.68-3.51-.93-6-1.86a30.57,30.57,0,0,1-5.37-2.74,12,12,0,0,1-4.39-4.65,14.09,14.09,0,0,1-1.5-6.66,14.34,14.34,0,0,1,5.58-12,22.11,22.11,0,0,1,14-4.44A23.4,23.4,0,0,1,479.33,24a20.77,20.77,0,0,1,8.16,8.11l-11.36,6.19A8.49,8.49,0,0,0,467.87,33a7.33,7.33,0,0,0-4.29,1.19,3.58,3.58,0,0,0-1.7,3"/><path class="cls-1" d="M588.67,67.84A27.26,27.26,0,0,1,542,48.43a27.31,27.31,0,1,1,54.63,0,26.41,26.41,0,0,1-8,19.41m-29.43-9.19a14.47,14.47,0,0,0,20,0,13.85,13.85,0,0,0,4-10.22,13.85,13.85,0,0,0-4-10.22,14.47,14.47,0,0,0-20,0,14.27,14.27,0,0,0-3.92,10.22,14.26,14.26,0,0,0,3.92,10.22"/><path class="cls-1" d="M633.48,21.17a18.32,18.32,0,0,1,13.94,5.68Q653,32.63,653,42.54v31.7H639.68v-30q0-5.06-2.74-7.85a10,10,0,0,0-7.49-2.79,10.84,10.84,0,0,0-8.31,3.25q-3,3.25-3,9.55V74.24H604.78V22.61H618.1V28.4q4.75-7.23,15.39-7.23"/><path class="cls-1" d="M210,89V94.4h-.88V89.12c0-2.07-1.1-3.16-3-3.16a3.27,3.27,0,0,0-3.47,3.56V94.4h-.88V85.24h.84v2a3.78,3.78,0,0,1,3.63-2.05c2.23,0,3.72,1.32,3.72,3.88"/><path class="cls-1" d="M220,88.59V94.4h-.84V92.77a3.52,3.52,0,0,1-3.3,1.7c-2.05,0-3.3-1.05-3.3-2.61,0-1.39.88-2.56,3.42-2.56h3.14v-.74c0-1.7-.93-2.61-2.72-2.61a4.75,4.75,0,0,0-3.16,1.16l-.44-.63a5.59,5.59,0,0,1,3.67-1.3c2.26,0,3.53,1.16,3.53,3.42m-.88,3.1V90H216c-1.89,0-2.56.79-2.56,1.84s.93,1.93,2.54,1.93a3.14,3.14,0,0,0,3.14-2.05"/><path class="cls-1" d="M227.94,93.82a2.77,2.77,0,0,1-1.88.65A2.27,2.27,0,0,1,223.57,92V86h-1.68v-.75h1.68v-2h.88v2h2.91V86h-2.91v5.89c0,1.17.58,1.82,1.7,1.82a2.1,2.1,0,0,0,1.42-.51Z"/><path class="cls-1" d="M229.89,82.31a.72.72,0,0,1,.72-.72.71.71,0,1,1-.72.72m.28,2.93h.88V94.4h-.88Z"/><path class="cls-1" d="M233.54,89.82a4.58,4.58,0,1,1,4.58,4.65,4.46,4.46,0,0,1-4.58-4.65m8.26,0a3.69,3.69,0,1,0-3.68,3.86,3.63,3.63,0,0,0,3.68-3.86"/><path class="cls-1" d="M253.41,89V94.4h-.88V89.12c0-2.07-1.11-3.16-3-3.16a3.27,3.27,0,0,0-3.47,3.56V94.4h-.88V85.24h.84v2a3.78,3.78,0,0,1,3.63-2.05c2.23,0,3.72,1.32,3.72,3.88"/><path class="cls-1" d="M263.43,88.59V94.4h-.84V92.77a3.52,3.52,0,0,1-3.3,1.7c-2.05,0-3.3-1.05-3.3-2.61,0-1.39.88-2.56,3.42-2.56h3.14v-.74c0-1.7-.93-2.61-2.72-2.61a4.75,4.75,0,0,0-3.16,1.16l-.44-.63a5.59,5.59,0,0,1,3.67-1.3c2.26,0,3.52,1.16,3.52,3.42m-.88,3.1V90h-3.12c-1.9,0-2.56.79-2.56,1.84s.93,1.93,2.54,1.93a3.14,3.14,0,0,0,3.14-2.05"/><rect class="cls-1" x="266.84" y="81.38" width="0.88" height="13.02"/><path class="cls-1" d="M274.5,89.82a4.46,4.46,0,0,1,4.63-4.65,4,4,0,0,1,3.47,1.68l-.65.47A3.35,3.35,0,0,0,279.14,86a3.86,3.86,0,0,0,0,7.72A3.34,3.34,0,0,0,282,92.31l.65.47a4.06,4.06,0,0,1-3.47,1.68,4.47,4.47,0,0,1-4.63-4.65"/><path class="cls-1" d="M283.88,89.82a4.58,4.58,0,1,1,4.58,4.65,4.46,4.46,0,0,1-4.58-4.65m8.26,0a3.69,3.69,0,1,0-3.68,3.86,3.63,3.63,0,0,0,3.68-3.86"/><path class="cls-1" d="M310.6,89V94.4h-.88V89.12c0-2.07-1.07-3.16-2.86-3.16a3.22,3.22,0,0,0-3.35,3.56V94.4h-.88V89.12c0-2.07-1.07-3.16-2.86-3.16a3.22,3.22,0,0,0-3.35,3.56V94.4h-.88V85.24h.84v2a3.63,3.63,0,0,1,3.51-2,3.25,3.25,0,0,1,3.35,2.21,3.86,3.86,0,0,1,3.7-2.21c2.21,0,3.65,1.32,3.65,3.88"/><path class="cls-1" d="M323.13,89.82a4.43,4.43,0,0,1-4.52,4.65,4.1,4.1,0,0,1-3.72-2.16V97.8H314V85.24h.84V87.4a4.09,4.09,0,0,1,3.75-2.23,4.44,4.44,0,0,1,4.52,4.65m-.88,0a3.7,3.7,0,1,0-3.7,3.86,3.65,3.65,0,0,0,3.7-3.86"/><path class="cls-1" d="M333.38,90H325.5a3.92,3.92,0,0,0,6.81,2.37l.51.58a4.39,4.39,0,0,1-3.46,1.49,4.5,4.5,0,0,1-4.72-4.65A4.38,4.38,0,0,1,329,85.17a4.33,4.33,0,0,1,4.37,4.61c0,.07,0,.16,0,.25m-7.86-.69h7a3.51,3.51,0,0,0-7,0"/><path class="cls-1" d="M340.46,93.82a2.78,2.78,0,0,1-1.88.65A2.27,2.27,0,0,1,336.09,92V86H334.4v-.75h1.68v-2H337v2h2.91V86H337v5.89c0,1.17.58,1.82,1.7,1.82a2.11,2.11,0,0,0,1.42-.51Z"/><path class="cls-1" d="M342.41,82.31a.72.72,0,0,1,.72-.72.71.71,0,1,1-.72.72m.28,2.93h.88V94.4h-.88Z"/><path class="cls-1" d="M351.6,93.82a2.77,2.77,0,0,1-1.88.65A2.27,2.27,0,0,1,347.23,92V86h-1.68v-.75h1.68v-2h.88v2H351V86h-2.91v5.89c0,1.17.58,1.82,1.7,1.82a2.1,2.1,0,0,0,1.42-.51Z"/><path class="cls-1" d="M353.55,82.31a.72.72,0,0,1,.72-.72.71.71,0,1,1-.72.72m.28,2.93h.88V94.4h-.88Z"/><path class="cls-1" d="M357.2,89.82a4.58,4.58,0,1,1,4.58,4.65,4.46,4.46,0,0,1-4.58-4.65m8.26,0a3.69,3.69,0,1,0-3.69,3.86,3.63,3.63,0,0,0,3.69-3.86"/><path class="cls-1" d="M377.06,89V94.4h-.88V89.12c0-2.07-1.11-3.16-3-3.16a3.27,3.27,0,0,0-3.47,3.56V94.4h-.88V85.24h.84v2a3.78,3.78,0,0,1,3.63-2.05c2.23,0,3.72,1.32,3.72,3.88"/><path class="cls-1" d="M383.77,89.82a4.58,4.58,0,1,1,4.58,4.65,4.46,4.46,0,0,1-4.58-4.65m8.26,0a3.69,3.69,0,1,0-3.69,3.86A3.63,3.63,0,0,0,392,89.82"/><path class="cls-1" d="M403.63,89V94.4h-.88V89.12c0-2.07-1.1-3.16-3-3.16a3.27,3.27,0,0,0-3.47,3.56V94.4h-.88V85.24h.84v2a3.78,3.78,0,0,1,3.63-2.05c2.23,0,3.72,1.32,3.72,3.88"/><path class="cls-1" d="M418,88.59V94.4h-.84V92.77a3.51,3.51,0,0,1-3.3,1.7c-2.05,0-3.3-1.05-3.3-2.61,0-1.39.88-2.56,3.42-2.56h3.14v-.74c0-1.7-.93-2.61-2.72-2.61a4.75,4.75,0,0,0-3.16,1.16l-.44-.63a5.59,5.59,0,0,1,3.67-1.3c2.26,0,3.53,1.16,3.53,3.42m-.88,3.1V90H414c-1.89,0-2.56.79-2.56,1.84s.93,1.93,2.54,1.93a3.14,3.14,0,0,0,3.14-2.05"/><path class="cls-1" d="M425.7,85.17V86l-.21,0c-2,0-3.24,1.35-3.24,3.61V94.4h-.88V85.24h.84v2a3.47,3.47,0,0,1,3.49-2.07"/><path class="cls-1" d="M432.87,93.82a2.77,2.77,0,0,1-1.88.65A2.27,2.27,0,0,1,428.51,92V86h-1.68v-.75h1.68v-2h.88v2h2.91V86h-2.91v5.89c0,1.17.58,1.82,1.7,1.82a2.1,2.1,0,0,0,1.42-.51Z"/><path class="cls-1" d="M433.75,93.3l.4-.7a5.33,5.33,0,0,0,3.3,1.11c1.93,0,2.7-.68,2.7-1.72,0-2.67-6.07-.7-6.07-4.3,0-1.39,1.16-2.51,3.47-2.51a5.63,5.63,0,0,1,3.14.89l-.4.7a4.71,4.71,0,0,0-2.75-.83c-1.79,0-2.58.74-2.58,1.72,0,2.75,6.07.81,6.07,4.3,0,1.49-1.28,2.51-3.61,2.51a5.75,5.75,0,0,1-3.67-1.18"/><path class="cls-1" d="M443.91,93.72a2.75,2.75,0,0,1-.16.81l-.68,2.38h-.63l.58-2.47a.74.74,0,0,1,.16-1.46.73.73,0,0,1,.74.74"/><path class="cls-1" d="M460,89.82a4.44,4.44,0,0,1-4.53,4.65,4.09,4.09,0,0,1-3.75-2.23V94.4h-.84v-13h.88v5.95a4.1,4.1,0,0,1,3.72-2.16A4.43,4.43,0,0,1,460,89.82m-.88,0a3.7,3.7,0,1,0-3.7,3.86,3.65,3.65,0,0,0,3.7-3.86"/><path class="cls-1" d="M470.53,85.24V94.4h-.84v-2a3.61,3.61,0,0,1-3.46,2,3.5,3.5,0,0,1-3.82-3.88V85.24h.88v5.28c0,2.07,1.1,3.16,3,3.16a3.22,3.22,0,0,0,3.35-3.56V85.24Z"/><path class="cls-1" d="M472.7,93.3l.4-.7a5.33,5.33,0,0,0,3.3,1.11c1.93,0,2.7-.68,2.7-1.72,0-2.67-6.07-.7-6.07-4.3,0-1.39,1.16-2.51,3.47-2.51a5.63,5.63,0,0,1,3.14.89l-.4.7a4.72,4.72,0,0,0-2.75-.83c-1.79,0-2.58.74-2.58,1.72,0,2.75,6.07.81,6.07,4.3,0,1.49-1.28,2.51-3.61,2.51a5.75,5.75,0,0,1-3.67-1.18"/><path class="cls-1" d="M481.95,82.31a.72.72,0,0,1,.72-.72.71.71,0,1,1-.72.72m.28,2.93h.88V94.4h-.88Z"/><path class="cls-1" d="M494.79,89V94.4h-.88V89.12c0-2.07-1.1-3.16-3-3.16a3.27,3.27,0,0,0-3.47,3.56V94.4h-.88V85.24h.84v2a3.78,3.78,0,0,1,3.63-2.05c2.23,0,3.72,1.32,3.72,3.88"/><path class="cls-1" d="M506,90h-7.88a3.92,3.92,0,0,0,6.81,2.37l.51.58a4.38,4.38,0,0,1-3.46,1.49,4.5,4.5,0,0,1-4.72-4.65,4.38,4.38,0,0,1,4.39-4.65A4.33,4.33,0,0,1,506,89.79c0,.07,0,.16,0,.25m-7.86-.69h7a3.51,3.51,0,0,0-7,0"/><path class="cls-1" d="M507.13,93.3l.4-.7a5.32,5.32,0,0,0,3.3,1.11c1.93,0,2.7-.68,2.7-1.72,0-2.67-6.07-.7-6.07-4.3,0-1.39,1.16-2.51,3.48-2.51a5.63,5.63,0,0,1,3.14.89l-.4.7a4.71,4.71,0,0,0-2.75-.83c-1.79,0-2.58.74-2.58,1.72,0,2.75,6.07.81,6.07,4.3,0,1.49-1.28,2.51-3.61,2.51a5.75,5.75,0,0,1-3.67-1.18"/><path class="cls-1" d="M515.31,93.3l.4-.7A5.33,5.33,0,0,0,519,93.7c1.93,0,2.7-.68,2.7-1.72,0-2.67-6.07-.7-6.07-4.3,0-1.39,1.16-2.51,3.47-2.51a5.63,5.63,0,0,1,3.14.89l-.4.7a4.71,4.71,0,0,0-2.75-.83c-1.79,0-2.58.74-2.58,1.72,0,2.75,6.07.81,6.07,4.3,0,1.49-1.28,2.51-3.61,2.51a5.75,5.75,0,0,1-3.67-1.18"/><path class="cls-1" d="M525.47,93.72a2.72,2.72,0,0,1-.16.81l-.68,2.38H524l.58-2.47a.74.74,0,0,1,.16-1.46.73.73,0,0,1,.74.74"/><path class="cls-1" d="M539,88.59V94.4h-.84V92.77a3.52,3.52,0,0,1-3.3,1.7c-2.05,0-3.3-1.05-3.3-2.61,0-1.39.88-2.56,3.42-2.56h3.14v-.74a2.38,2.38,0,0,0-2.72-2.61,4.75,4.75,0,0,0-3.16,1.16l-.44-.63a5.59,5.59,0,0,1,3.67-1.3c2.26,0,3.53,1.16,3.53,3.42m-.88,3.1V90H535c-1.9,0-2.56.79-2.56,1.84s.93,1.93,2.54,1.93a3.14,3.14,0,0,0,3.14-2.05"/><path class="cls-1" d="M550.65,89V94.4h-.88V89.12c0-2.07-1.1-3.16-3-3.16a3.27,3.27,0,0,0-3.47,3.56V94.4h-.88V85.24h.84v2a3.78,3.78,0,0,1,3.63-2.05c2.23,0,3.72,1.32,3.72,3.88"/><path class="cls-1" d="M562.21,81.38v13h-.86V92.24a4.06,4.06,0,0,1-3.75,2.23,4.65,4.65,0,0,1,0-9.3,4.1,4.1,0,0,1,3.74,2.19v-6Zm-.88,8.44a3.69,3.69,0,1,0-3.68,3.86,3.63,3.63,0,0,0,3.68-3.86"/><path class="cls-1" d="M577.75,90h-7.88a3.92,3.92,0,0,0,6.81,2.37l.51.58a4.38,4.38,0,0,1-3.46,1.49A4.5,4.5,0,0,1,569,89.82a4.38,4.38,0,0,1,4.39-4.65,4.34,4.34,0,0,1,4.37,4.61c0,.07,0,.16,0,.25m-7.86-.69h7a3.51,3.51,0,0,0-7,0"/><path class="cls-1" d="M588.42,81.38v13h-.86V92.24a4.06,4.06,0,0,1-3.75,2.23,4.65,4.65,0,0,1,0-9.3,4.1,4.1,0,0,1,3.74,2.19v-6Zm-.88,8.44a3.69,3.69,0,1,0-3.68,3.86,3.63,3.63,0,0,0,3.68-3.86"/><path class="cls-1" d="M599.93,85.24V94.4h-.84v-2a3.61,3.61,0,0,1-3.46,2,3.5,3.5,0,0,1-3.82-3.88V85.24h.88v5.28c0,2.07,1.1,3.16,3,3.16a3.22,3.22,0,0,0,3.35-3.56V85.24Z"/><path class="cls-1" d="M602.44,89.82a4.46,4.46,0,0,1,4.63-4.65,4,4,0,0,1,3.47,1.68l-.65.47A3.35,3.35,0,0,0,607.07,86a3.86,3.86,0,0,0,0,7.72,3.34,3.34,0,0,0,2.83-1.37l.65.47a4.06,4.06,0,0,1-3.47,1.68,4.47,4.47,0,0,1-4.63-4.65"/><path class="cls-1" d="M619.59,88.59V94.4h-.84V92.77a3.52,3.52,0,0,1-3.3,1.7c-2.05,0-3.3-1.05-3.3-2.61,0-1.39.88-2.56,3.42-2.56h3.14v-.74A2.38,2.38,0,0,0,616,85.95a4.75,4.75,0,0,0-3.16,1.16l-.44-.63a5.59,5.59,0,0,1,3.67-1.3c2.26,0,3.53,1.16,3.53,3.42m-.88,3.1V90h-3.12c-1.9,0-2.56.79-2.56,1.84s.93,1.93,2.54,1.93a3.14,3.14,0,0,0,3.14-2.05"/><path class="cls-1" d="M627.54,93.82a2.77,2.77,0,0,1-1.88.65A2.27,2.27,0,0,1,623.17,92V86h-1.68v-.75h1.68v-2H624v2H627V86H624v5.89c0,1.17.58,1.82,1.7,1.82a2.1,2.1,0,0,0,1.42-.51Z"/><path class="cls-1" d="M629.49,82.31a.72.72,0,0,1,.72-.72.71.71,0,1,1-.72.72m.28,2.93h.88V94.4h-.88Z"/><path class="cls-1" d="M633.14,89.82a4.58,4.58,0,1,1,4.58,4.65,4.46,4.46,0,0,1-4.58-4.65m8.26,0a3.69,3.69,0,1,0-3.68,3.86,3.63,3.63,0,0,0,3.68-3.86"/><path class="cls-1" d="M653,89V94.4h-.88V89.12c0-2.07-1.1-3.16-3-3.16a3.27,3.27,0,0,0-3.47,3.56V94.4h-.88V85.24h.84v2a3.78,3.78,0,0,1,3.63-2.05c2.23,0,3.72,1.32,3.72,3.88"/><path class="cls-1" d="M527.83,21.81a12.25,12.25,0,0,1,1.52.1L529,19l-5.42-2.91v6.3a21,21,0,0,1,4.3-.62"/><path class="cls-1" d="M518.45,25A23.12,23.12,0,0,1,522.1,23V7L509.93,0V14.17l8.51-4.91Z"/><path class="cls-1" d="M504.7,39.83A51.22,51.22,0,0,1,516,26.68V13.47l-12.16,7V41.22q.42-.71.85-1.39"/><path class="cls-1" d="M523.53,16.14,529,19.31a12.79,12.79,0,0,0-5.48-7.85Z"/><path class="cls-1" d="M529.18,23.33a10.83,10.83,0,0,0-1.35-.08,12.51,12.51,0,0,0-3.15.43l-1.16.3v0l-.89.36a21.8,21.8,0,0,0-3.42,1.8l-1.77,1.13v.09l-.55.43a50.07,50.07,0,0,0-11,12.78q-.42.67-.83,1.36l-1.18,2a12.74,12.74,0,0,0,25.43-1.06V23.35Z"/><path class="cls-1" d="M508.5,16.15V12.31a12.78,12.78,0,0,0-4.12,6.22Z"/><polygon class="cls-1" points="502.59 39.57 502.62 39.67 493.2 40.47 493.17 40.37 502.59 39.57"/><path class="cls-1" d="M499,41.64l3.62-2L497.73,38l-4.53,2.47,4.06,1.32a4.54,4.54,0,0,1,1.75-.15"/><path class="cls-1" d="M498.82,41.62l3.77-2-4.89-1.68-4.53,2.47,4.25,1.38a4.53,4.53,0,0,1,1.4-.12"/><path class="cls-1" d="M495.78,42.47a4.7,4.7,0,0,1,4.57-.47c0-.34-.11-.83-.17-1.26l-.12-.86a3.89,3.89,0,0,0-4.41.43l.07,1.07Z"/><path class="cls-1" d="M495.7,42.64l-.15-2.37,0,0a4,4,0,0,1,4.51-.43l0,0v0s.06.39.12.86.13.92.17,1.26l0,.16-.14-.06a4.63,4.63,0,0,0-4.48.46Zm0-2.29.12,2a4.8,4.8,0,0,1,4.38-.45c0-.32-.1-.74-.15-1.1l-.11-.81a3.8,3.8,0,0,0-4.24.41"/><polygon class="cls-1" points="535.03 37.81 535.03 37.79 535.03 37.8 535.02 37.79 535.02 37.81 534.27 39.89 535.02 39.89 535.03 39.89 535.79 39.89 535.03 37.81"/><path class="cls-1" d="M537,44.12h.19l.17,0-1.25-3.59h-1V44.8a1.48,1.48,0,0,1,.53.1l0,0a1.7,1.7,0,0,1,1-.7,1.37,1.37,0,0,1,.34,0"/><path class="cls-1" d="M534.92,40.58h-1l-1.24,3.58a1.37,1.37,0,0,1,.35,0h.23a1.67,1.67,0,0,1,1.08.74l0,0a1.49,1.49,0,0,1,.53-.1h0V40.58Z"/><path class="cls-1" d="M537.27,44.67h-.06l-.11,0H537l-.21,0a1.2,1.2,0,0,0-.67.5.53.53,0,0,1-.45.25.48.48,0,0,1-.17,0,1,1,0,0,0-.35-.07h-.27a1,1,0,0,0-.29.06.49.49,0,0,1-.18,0,.51.51,0,0,1-.43-.25v0a1.16,1.16,0,0,0-.74-.52h-.14a.79.79,0,0,0-.21,0l-.13,0h0a16.17,16.17,0,0,1-32.25-1.77,2.24,2.24,0,0,0,0-.26h0a4.1,4.1,0,0,0-4.45.4l-.1.05a20.75,20.75,0,0,0,18.46,20.49v6.1H506a2.29,2.29,0,0,0,0,4.58H527.2a2.29,2.29,0,1,0,0-4.58h-8.32v-6.1a20.74,20.74,0,0,0,18.39-18.9M515,62.53a.29.29,0,0,1-.46.37l-1.17-1.46a.29.29,0,0,1,0-.37l1.17-1.46A.29.29,0,0,1,515,60l-1,1.28Zm2.66-2.59-1.76,2.93a.29.29,0,0,1-.5-.3l1.76-2.93a.29.29,0,0,1,.5.3m.86,3a.29.29,0,1,1-.46-.37l1-1.28-1-1.28a.29.29,0,1,1,.46-.37l1.17,1.46a.29.29,0,0,1,0,.37Z"/></g></g></svg>