<?xml version="1.0" encoding="UTF-8"?>
<!DOCTYPE svg PUBLIC "-//W3C//DTD SVG 1.1//EN" "http://www.w3.org/Graphics/SVG/1.1/DTD/svg11.dtd">
<!-- Creator: CorelDRAW 2019 (64-Bit) -->
<svg xmlns="http://www.w3.org/2000/svg" xml:space="preserve" width="1.18775in" height="1.18775in" version="1.1" style="shape-rendering:geometricPrecision; text-rendering:geometricPrecision; image-rendering:optimizeQuality; fill-rule:evenodd; clip-rule:evenodd"
viewBox="0 0 154.7 154.7"
 xmlns:xlink="http://www.w3.org/1999/xlink">
 <defs>
  <style type="text/css">
   <![CDATA[
    .fil4 {fill:#AA4638}
    .fil2 {fill:#AA4638;fill-rule:nonzero}
    .fil0 {fill:#BDC8D1;fill-rule:nonzero}
    .fil3 {fill:#C86452;fill-rule:nonzero}
    .fil1 {fill:white;fill-rule:nonzero}
   ]]>
  </style>
 </defs>
 <g id="Layer_x0020_1">
  <metadata id="CorelCorpID_0Corel-Layer"/>
  <g id="_2205939531760">
   <g>
    <path class="fil0" d="M154.7 77.35c0,42.72 -34.63,77.35 -77.35,77.35 -42.72,0 -77.35,-34.63 -77.35,-77.35 0,-42.72 34.63,-77.35 77.35,-77.35 42.72,0 77.35,34.63 77.35,77.35z"/>
    <g>
     <path class="fil1" d="M79.63 147.81c-0.07,-1.24 0.84,-2.28 2.08,-2.35 1.2,-0.09 2.26,0.84 2.35,2.06 0.07,1.22 -0.87,2.28 -2.08,2.35 -0.04,0 -0.09,0 -0.13,0 -1.15,0 -2.15,-0.91 -2.21,-2.06zm-15.81 0.95l0 0c-1.22,-0.22 -1.99,-1.39 -1.77,-2.59 0.22,-1.2 1.39,-1.99 2.59,-1.77 1.2,0.22 1.99,1.39 1.75,2.59 -0.2,1.06 -1.11,1.79 -2.17,1.79 -0.13,0 -0.27,0 -0.4,-0.02zm33.26 -3.72l0 0c-0.38,-1.17 0.24,-2.41 1.42,-2.79 1.15,-0.38 2.41,0.24 2.79,1.42 0.38,1.15 -0.27,2.41 -1.42,2.79 -0.22,0.07 -0.46,0.11 -0.69,0.11 -0.93,0 -1.79,-0.6 -2.1,-1.53zm-50.59 -1.88l0 0c-1.11,-0.53 -1.57,-1.84 -1.06,-2.94 0.53,-1.11 1.84,-1.59 2.94,-1.06 1.11,0.51 1.57,1.84 1.06,2.94 -0.38,0.8 -1.17,1.26 -2.01,1.26 -0.31,0 -0.62,-0.07 -0.93,-0.2zm66.8 -5.16l0 0c-0.67,-1.02 -0.38,-2.39 0.66,-3.06 1.04,-0.64 2.39,-0.35 3.06,0.69 0.66,1.02 0.35,2.39 -0.66,3.06 -0.38,0.24 -0.8,0.35 -1.2,0.35 -0.73,0 -1.44,-0.38 -1.86,-1.04zm-82.19 -4.61l0 0c-0.93,-0.77 -1.06,-2.17 -0.29,-3.1 0.77,-0.95 2.17,-1.09 3.12,-0.31 0.93,0.78 1.06,2.17 0.29,3.12 -0.44,0.53 -1.06,0.8 -1.71,0.8 -0.49,0 -1,-0.15 -1.42,-0.51zm96.12 -6.22l0 0c-0.89,-0.84 -0.93,-2.24 -0.09,-3.14 0.82,-0.89 2.24,-0.93 3.12,-0.09 0.89,0.84 0.93,2.24 0.09,3.12 0,0 0,0 0.02,0 -0.44,0.47 -1.04,0.71 -1.62,0.71 -0.55,0 -1.09,-0.2 -1.53,-0.6zm-108.58 -7.02l0 0c-0.73,-0.97 -0.51,-2.37 0.46,-3.1 0.99,-0.71 2.37,-0.51 3.1,0.49 0.73,1 0.51,2.37 -0.49,3.1 -0.38,0.29 -0.84,0.42 -1.28,0.42 -0.69,0 -1.37,-0.31 -1.79,-0.91zm119.41 -6.93l0 0c-1.06,-0.6 -1.46,-1.95 -0.86,-3.01 0.58,-1.08 1.92,-1.46 3.01,-0.89 1.06,0.6 1.46,1.95 0.86,3.01 -0.4,0.73 -1.15,1.15 -1.95,1.15 -0.35,0 -0.73,-0.09 -1.06,-0.26zm-128.22 -8.99l0 0c-0.47,-1.15 0.09,-2.44 1.24,-2.88 1.13,-0.47 2.41,0.09 2.88,1.24 0.44,1.13 -0.11,2.41 -1.24,2.88 -0.27,0.09 -0.55,0.15 -0.82,0.15 -0.88,0 -1.73,-0.53 -2.06,-1.39zm135.24 -7.24l0 0c-1.17,-0.29 -1.91,-1.51 -1.59,-2.68 0.31,-1.2 1.51,-1.9 2.7,-1.59 1.17,0.29 1.9,1.51 1.59,2.68 -0.27,1.02 -1.15,1.68 -2.15,1.68 -0.18,0 -0.38,-0.02 -0.55,-0.09zm-139.8 -10.41l0 0c-0.16,-1.2 0.71,-2.32 1.93,-2.46 1.22,-0.15 2.32,0.69 2.48,1.9 0.16,1.22 -0.71,2.33 -1.92,2.48 -0.09,0.02 -0.18,0.02 -0.29,0.02 -1.08,0 -2.04,-0.82 -2.19,-1.95zm140.33 -9.23l0 0c0,-0.04 0,-0.09 0,-0.11 0,-0.07 0,-0.11 0,-0.18 0,-1.22 0.97,-2.21 2.21,-2.24 1.22,0 2.21,1 2.21,2.21 0,0.04 0,0.11 0,0.16 0,0.04 0,0.09 0,0.15 0,1.22 -1,2.21 -2.21,2.21 -1.22,0 -2.21,-1 -2.21,-2.21zm-138.43 -6.49l0 0c-1.22,-0.15 -2.08,-1.26 -1.93,-2.48 0.13,-1.2 1.24,-2.08 2.46,-1.93 1.22,0.15 2.08,1.26 1.93,2.48 -0.13,1.11 -1.09,1.95 -2.19,1.95 -0.09,0 -0.18,-0.02 -0.27,-0.02zm136.24 -10.76l0 0c-0.31,-1.17 0.4,-2.39 1.59,-2.7 1.17,-0.31 2.37,0.4 2.68,1.59 0.31,1.17 -0.4,2.39 -1.57,2.7 -0.2,0.04 -0.38,0.07 -0.55,0.07 -1,0 -1.9,-0.66 -2.15,-1.66zm-132.45 -6.49l0 0c-1.13,-0.44 -1.68,-1.75 -1.24,-2.88 0.44,-1.13 1.73,-1.7 2.88,-1.24 1.13,0.44 1.68,1.73 1.24,2.86 -0.33,0.89 -1.17,1.42 -2.06,1.42 -0.27,0 -0.53,-0.07 -0.82,-0.15zm126.1 -9.39l0 0c-0.6,-1.06 -0.22,-2.39 0.84,-3.01 1.09,-0.58 2.44,-0.2 3.03,0.86 0.58,1.09 0.2,2.44 -0.86,3.01 -0.35,0.2 -0.71,0.29 -1.09,0.29 -0.77,0 -1.53,-0.42 -1.93,-1.15zm-118.1 -6.38l0 0c-0.98,-0.71 -1.2,-2.1 -0.49,-3.08 0.71,-1 2.1,-1.22 3.1,-0.51 0.98,0.73 1.2,2.1 0.49,3.1 -0.44,0.6 -1.11,0.91 -1.79,0.91 -0.44,0 -0.91,-0.13 -1.31,-0.42zm107.98 -7.4l0 0c-0.84,-0.89 -0.8,-2.28 0.09,-3.12 0.89,-0.84 2.3,-0.82 3.12,0.07 0,0 0,0 0.02,0 0.82,0.91 0.8,2.3 -0.09,3.14 -0.44,0.4 -1,0.6 -1.53,0.6 -0.6,0 -1.17,-0.22 -1.62,-0.69zm-96.32 -5.87l0 0c-0.8,-0.95 -0.66,-2.35 0.29,-3.12 0.93,-0.78 2.32,-0.64 3.12,0.29 0.78,0.93 0.64,2.32 -0.29,3.12 -0.42,0.33 -0.93,0.51 -1.42,0.51 -0.64,0 -1.26,-0.27 -1.71,-0.8zm83.12 -5l0 0c-1.04,-0.64 -1.35,-2.02 -0.71,-3.06 0.66,-1.02 2.04,-1.33 3.06,-0.69 1.04,0.66 1.35,2.01 0.71,3.06 -0.44,0.66 -1.15,1.04 -1.88,1.04 -0.4,0 -0.82,-0.11 -1.17,-0.35zm-68.55 -4.96l0 0c-0.53,-1.13 -0.07,-2.44 1.04,-2.97 1.11,-0.53 2.41,-0.04 2.95,1.06 0.53,1.08 0.06,2.41 -1.04,2.94 -0.31,0.13 -0.64,0.22 -0.95,0.22 -0.82,0 -1.62,-0.49 -1.99,-1.26zm53.05 -2.28l0 0c-1.17,-0.35 -1.79,-1.62 -1.44,-2.77 0.38,-1.17 1.64,-1.82 2.79,-1.44 1.17,0.38 1.82,1.62 1.44,2.79 -0.31,0.93 -1.17,1.53 -2.1,1.53 -0.22,0 -0.47,-0.02 -0.69,-0.11zm-36.47 -3.76l0 0c-0.22,-1.2 0.55,-2.37 1.77,-2.59 1.2,-0.22 2.35,0.55 2.59,1.75 0.22,1.2 -0.55,2.37 -1.75,2.59 -0.15,0.04 -0.29,0.04 -0.44,0.04 -1.04,0 -1.97,-0.73 -2.17,-1.79zm19.66 0.64l0 0c-1.22,-0.07 -2.15,-1.13 -2.08,-2.35 0.07,-1.22 1.13,-2.15 2.35,-2.08 0,0 0,0 0,0.02 1.22,0.07 2.15,1.11 2.08,2.32 -0.09,1.17 -1.06,2.08 -2.21,2.08 -0.05,0 -0.09,0 -0.13,0z"/>
    </g>
    <path class="fil2" d="M140.93 77.35c0,35.12 -28.47,63.58 -63.58,63.58 -35.12,0 -63.58,-28.47 -63.58,-63.58 0,-35.12 28.47,-63.58 63.58,-63.58 35.12,0 63.58,28.47 63.58,63.58z"/>
    <path class="fil3" d="M134.77 77.35c0,31.72 -25.71,57.43 -57.43,57.43 -31.72,0 -57.43,-25.71 -57.43,-57.43 0,-31.72 25.71,-57.43 57.43,-57.43 31.72,0 57.43,25.71 57.43,57.43z"/>
    <polygon class="fil2" points="81.98,137.05 72.72,137.05 72.72,17.65 81.98,17.65 "/>
    <polygon class="fil2" points="17.65,81.98 17.65,72.72 137.05,72.72 137.05,81.98 "/>
   </g>
   <g>
    <path class="fil4" d="M59.5 97.58c-1.23,-1.79 -1.94,-3.96 -1.94,-6.29 0,-1.73 -0.66,-3.41 -1.87,-4.66 -6.35,-6.55 -9.36,-15.53 -8.29,-24.59 1.53,-13.01 13.45,-24.86 26.46,-26.33 17.87,-2.02 33.63,11.96 33.63,29.96 0,7.9 -3.08,15.43 -8.61,21.07 -1.18,1.2 -1.76,2.88 -1.76,4.55 0,2.33 -0.72,4.5 -1.94,6.29 0.71,1.42 1.11,3.01 1.11,4.7l0 0.41c0,4.72 -3.11,8.71 -7.38,10.06 -2.25,3.84 -6.41,6.42 -11.18,6.42l-0.75 0c-4.77,0 -8.93,-2.58 -11.18,-6.42 -4.29,-1.34 -7.4,-5.34 -7.4,-10.06l0 -0.41c0,-1.69 0.4,-3.29 1.11,-4.7z"/>
   </g>
   <g>
    <path class="fil1" d="M85.76 99.44l-16.82 0c-1.57,0 -2.84,1.27 -2.84,2.84l0 0.41c0,1.57 1.27,2.84 2.84,2.84l2.79 0 0 0.69c0,2.9 2.35,5.25 5.25,5.25l0.75 0c2.9,0 5.25,-2.35 5.25,-5.25l0 -0.69 2.78 0c1.57,0 2.84,-1.27 2.84,-2.84l0 -0.41c0,-1.57 -1.27,-2.84 -2.84,-2.84z"/>
    <path class="fil1" d="M74.73 43.36c-9.46,1.07 -18.57,10.13 -19.69,19.59 -0.84,7.14 1.68,13.7 6.17,18.33 2.6,2.68 4.04,6.28 4.04,10.01l0 0c0,1.91 1.55,3.46 3.45,3.46l17.28 0c1.91,0 3.45,-1.55 3.45,-3.46 0,-3.69 1.37,-7.29 3.96,-9.93 3.96,-4.05 6.41,-9.58 6.41,-15.69 0,-13.27 -11.5,-23.85 -25.08,-22.31zm0.43 42.74c0,1.21 -0.98,2.19 -2.19,2.19 -1.21,0 -2.19,-0.98 -2.19,-2.19l0 -9.47c0,-2.98 -2.42,-5.4 -5.4,-5.4 -1.21,0 -2.19,-0.98 -2.19,-2.19 0,-1.21 0.98,-2.19 2.19,-2.19 5.39,0 9.77,4.38 9.77,9.77l0 9.47zm14.15 -14.87c-2.98,0 -5.4,2.42 -5.4,5.4l0 9.47c0,1.21 -0.98,2.19 -2.19,2.19 -1.21,0 -2.19,-0.98 -2.19,-2.19l0 -9.47c0,-5.39 4.38,-9.77 9.77,-9.77 1.21,0 2.19,0.98 2.19,2.19 0,1.21 -0.98,2.19 -2.19,2.19z"/>
   </g>
  </g>
 </g>
</svg>
