<?xml version="1.0" encoding="UTF-8"?>
<!DOCTYPE svg PUBLIC "-//W3C//DTD SVG 1.1//EN" "http://www.w3.org/Graphics/SVG/1.1/DTD/svg11.dtd">
<!-- Creator: CorelDRAW 2019 (64-Bit) -->
<svg xmlns="http://www.w3.org/2000/svg" xml:space="preserve" width="1.08302in" height="1.46515in" version="1.1" style="shape-rendering:geometricPrecision; text-rendering:geometricPrecision; image-rendering:optimizeQuality; fill-rule:evenodd; clip-rule:evenodd"
viewBox="0 0 1077.75 1458.03"
 xmlns:xlink="http://www.w3.org/1999/xlink">
 <defs>
  <style type="text/css">
   <![CDATA[
    .fil4 {fill:#AA4638}
    .fil1 {fill:#AA4638;fill-rule:nonzero}
    .fil0 {fill:#BDC8D1;fill-rule:nonzero}
    .fil2 {fill:#C86452;fill-rule:nonzero}
    .fil3 {fill:white;fill-rule:nonzero}
   ]]>
  </style>
 </defs>
 <g id="Layer_x0020_1">
  <metadata id="CorelCorpID_0Corel-Layer"/>
  <g id="_2205944498768">
   <path class="fil0" d="M118.81 1054.65l-118.14 -764.5c-3.85,-24.91 9.22,-49.37 32.06,-60.03l482.18 -224.81c15.18,-7.08 32.72,-7.08 47.9,0l482.2 224.81c22.85,10.65 35.91,35.12 32.06,60.03l-118.14 764.5c-1.87,12.13 -7.64,23.33 -16.42,31.9l-364.06 355.35c-22.02,21.49 -57.16,21.49 -79.18,-0l-364.05 -355.35c-8.78,-8.58 -14.55,-19.77 -16.42,-31.9z"/>
   <polygon class="fil1" points="853.51,1020.56 962.92,312.57 538.88,114.86 114.83,312.57 224.24,1020.56 538.88,1327.67 "/>
   <polygon class="fil2" points="253.54,1005.48 149.32,330.98 538.87,149.35 928.43,330.98 824.2,1005.48 538.87,1283.99 "/>
   <polygon class="fil1" points="565.98,1295.23 511.76,1295.23 511.76,133.5 565.98,133.5 "/>
   <polygon class="fil1" points="191.09,741.48 191.09,687.25 886.66,687.25 886.66,741.48 "/>
   <g>
    <g>
     <path class="fil3" d="M54.02 298.62c-0.91,0 -2,-0.15 -2.93,-0.31 -1.07,-0.15 -2,-0.45 -2.91,-0.76 -0.93,-0.47 -1.85,-0.92 -2.61,-1.54 -0.93,-0.46 -1.7,-1.07 -2.31,-1.85 -2.91,-2.92 -4.61,-6.76 -4.61,-10.91 0,-3.99 1.7,-7.99 4.61,-10.91 0.62,-0.62 1.38,-1.23 2.31,-1.85 0.77,-0.61 1.68,-1.07 2.61,-1.38 0.91,-0.46 1.85,-0.76 2.91,-0.92 5.07,-0.92 10.31,0.62 13.84,4.15 2.93,2.92 4.46,6.92 4.46,10.91 0,4.15 -1.53,7.99 -4.46,10.91 -2.93,2.77 -6.77,4.46 -10.91,4.46z"/>
    </g>
    <g>
     <path class="fil3" d="M161.3 233.3c-3.54,-7.68 -0.16,-16.91 7.52,-20.44 7.69,-3.54 16.75,-0.31 20.44,7.38 3.55,7.68 0.15,16.91 -7.53,20.44 -1.99,1.08 -4.29,1.54 -6.45,1.54 -5.84,0 -11.36,-3.39 -13.98,-8.92zm121.26 -56.55l0 0c-3.69,-7.69 -0.31,-16.76 7.37,-20.44 7.69,-3.53 16.92,-0.16 20.44,7.38 3.69,7.84 0.32,16.91 -7.37,20.59 -2.16,0.92 -4.31,1.38 -6.45,1.38 -5.84,0 -11.38,-3.23 -13.99,-8.91zm121.11 -56.56l0 0c-3.54,-7.68 -0.15,-16.75 7.53,-20.44 7.69,-3.53 16.75,-0.15 20.44,7.53 3.53,7.69 0.31,16.9 -7.53,20.44 -1.99,0.92 -4.31,1.39 -6.45,1.39 -5.69,0 -11.38,-3.23 -13.99,-8.92z"/>
    </g>
    <g>
     <path class="fil3" d="M538.91 72.7c-1.06,0 -1.99,-0.16 -3.08,-0.31 -0.92,-0.31 -1.99,-0.61 -2.91,-0.92 -0.93,-0.47 -1.7,-0.92 -2.61,-1.39 -0.76,-0.62 -1.54,-1.22 -2.31,-1.99 -2.91,-2.76 -4.45,-6.76 -4.45,-10.75 0,-4.15 1.54,-8.15 4.45,-10.92 0.77,-0.76 1.55,-1.38 2.31,-2 0.92,-0.45 1.68,-0.92 2.61,-1.38 0.92,-0.31 1.99,-0.62 2.91,-0.92 2.01,-0.31 4.01,-0.31 6,0 0.92,0.31 2,0.62 2.91,0.92 0.93,0.46 1.85,0.92 2.61,1.38 0.93,0.62 1.7,1.23 2.31,2 2.93,2.77 4.61,6.77 4.61,10.92 0,3.99 -1.68,7.99 -4.61,10.75 -0.62,0.77 -1.38,1.38 -2.31,1.99 -0.76,0.47 -1.68,0.92 -2.61,1.39 -0.92,0.31 -2,0.62 -2.91,0.92 -0.93,0.15 -1.99,0.31 -2.93,0.31z"/>
    </g>
    <g>
     <path class="fil3" d="M895.95 240.68c-7.68,-3.53 -11.08,-12.76 -7.38,-20.44 3.54,-7.69 12.76,-10.92 20.44,-7.38 7.69,3.53 11.06,12.76 7.39,20.44 -2.61,5.53 -8.15,8.92 -13.99,8.92 -2.16,0 -4.31,-0.46 -6.45,-1.54zm-121.27 -56.55l0 0c-7.69,-3.54 -10.92,-12.61 -7.37,-20.29 3.53,-7.68 12.75,-11.06 20.44,-7.53 7.69,3.54 11.06,12.76 7.37,20.44 -2.61,5.53 -8.13,8.91 -13.82,8.91 -2.16,0 -4.46,-0.46 -6.62,-1.53zm-121.11 -56.41l0 0c-7.69,-3.68 -11.06,-12.75 -7.53,-20.44 3.69,-7.68 12.76,-11.07 20.44,-7.53 7.69,3.69 11.08,12.76 7.53,20.44 -2.61,5.69 -8.15,8.92 -13.99,8.92 -2.15,0 -4.29,-0.47 -6.45,-1.39z"/>
    </g>
    <g>
     <path class="fil3" d="M1023.66 298.62c-3.99,0 -7.98,-1.54 -10.91,-4.46 -1.38,-1.38 -2.46,-3.07 -3.23,-5.07 -0.77,-1.84 -1.23,-3.84 -1.23,-5.84 0,-3.99 1.69,-7.99 4.46,-10.75 3.54,-3.69 8.91,-5.23 13.99,-4.31 0.92,0.16 1.85,0.46 2.76,0.92 0.93,0.31 1.85,0.77 2.77,1.38 0.77,0.62 1.53,1.23 2.3,2.01 2.78,2.76 4.46,6.76 4.46,10.75 0,1.99 -0.3,4 -1.23,5.84 -0.76,2 -1.85,3.69 -3.23,5.07 -0.76,0.77 -1.53,1.39 -2.3,1.85 -0.93,0.62 -1.85,1.07 -2.77,1.54 -0.92,0.31 -1.85,0.62 -2.76,0.76 -1.08,0.31 -2,0.31 -3.08,0.31z"/>
    </g>
    <g>
     <path class="fil3" d="M619.75 1324.68c-5.99,-6 -5.84,-15.84 0.31,-21.67 5.99,-5.99 15.67,-5.84 21.67,0.15 5.99,6.15 5.84,15.83 -0.32,21.83 -2.91,2.92 -6.75,4.3 -10.76,4.3 -3.99,0 -7.84,-1.54 -10.91,-4.61zm91.91 -89.61l0 0c-5.99,-6.15 -5.84,-15.83 0.15,-21.82 6.15,-5.85 15.83,-5.85 21.82,0.31 5.84,5.99 5.84,15.83 -0.3,21.67 -2.93,2.92 -6.92,4.46 -10.76,4.46 -3.99,0 -7.98,-1.54 -10.91,-4.61zm91.9 -89.76l0 0c-5.99,-5.99 -5.84,-15.82 0.16,-21.67 6.14,-5.99 15.82,-5.84 21.82,0.15 5.84,6.14 5.84,15.84 -0.31,21.82 -2.91,2.93 -6.91,4.31 -10.75,4.31 -4,0 -8,-1.54 -10.92,-4.62zm100.07 -85.44l0 0c-8.3,-1.23 -14.14,-9.07 -12.76,-17.52 1.23,-8.46 9.07,-14.14 17.51,-12.91 8.3,1.38 14.14,9.21 12.76,17.52 -1.08,7.68 -7.69,13.06 -15.06,13.06 -0.78,0 -1.7,0 -2.46,-0.15zm19.66 -126.95l0 0c-8.45,-1.23 -14.14,-9.07 -12.91,-17.52 1.38,-8.3 9.23,-14.14 17.53,-12.75 8.45,1.22 14.14,9.07 12.91,17.52 -1.23,7.53 -7.69,13.06 -15.22,13.06 -0.76,0 -1.53,-0.14 -2.31,-0.31zm19.53 -126.79l0 0c-8.3,-1.38 -14.14,-9.23 -12.76,-17.52 1.23,-8.45 9.07,-14.14 17.51,-12.91 8.47,1.23 14.14,9.22 12.76,17.52 -1.07,7.68 -7.69,13.07 -15.05,13.07 -0.77,0 -1.55,-0.16 -2.46,-0.16zm19.68 -126.95l0 0c-8.46,-1.23 -14.14,-9.07 -12.92,-17.52 1.4,-8.45 9.23,-14.14 17.68,-12.91 8.3,1.38 13.99,9.22 12.76,17.67 -1.23,7.53 -7.68,12.91 -15.22,12.91 -0.77,0 -1.53,0 -2.3,-0.15zm19.66 -126.95l0 0c-8.45,-1.23 -14.14,-9.07 -12.91,-17.52 1.38,-8.29 9.06,-14.14 17.53,-12.75 8.45,1.22 14.14,9.07 12.91,17.52 -1.23,7.53 -7.85,12.91 -15.22,12.91 -0.76,0 -1.53,0 -2.31,-0.16zm19.53 -126.8l0 0c-8.3,-1.38 -14.14,-9.22 -12.76,-17.52 1.23,-8.45 9.07,-14.14 17.51,-12.91 8.3,1.23 14.14,9.22 12.76,17.52 -1.07,7.53 -7.69,13.06 -15.06,13.06 -0.78,0 -1.7,-0.16 -2.46,-0.16z"/>
    </g>
    <g>
     <path class="fil3" d="M538.91 1419.04c-4.14,0 -8.15,-1.69 -10.91,-4.45 -0.76,-0.76 -1.38,-1.53 -1.99,-2.45 -0.47,-0.78 -0.92,-1.7 -1.38,-2.61 -0.32,-0.92 -0.62,-1.85 -0.77,-2.93 -0.31,-0.92 -0.31,-1.99 -0.31,-2.92 0,-2 0.31,-4 1.08,-5.84 0.76,-1.99 1.99,-3.68 3.37,-5.07 5.69,-5.68 15.98,-5.68 21.67,0 1.53,1.39 2.61,3.08 3.38,5.07 0.77,1.85 1.23,3.84 1.23,5.84 0,0.92 -0.15,2 -0.3,2.92 -0.31,1.08 -0.46,2 -0.93,2.93 -0.45,0.92 -0.92,1.84 -1.38,2.61 -0.62,0.92 -1.23,1.69 -1.99,2.45 -2.76,2.77 -6.77,4.45 -10.76,4.45z"/>
    </g>
    <g>
     <path class="fil3" d="M436.25 1324.98c-6.15,-6 -6.15,-15.68 -0.32,-21.83 6.01,-5.99 15.69,-6.14 21.83,-0.15 6,5.84 6.15,15.68 0.16,21.67 -2.93,3.07 -6.92,4.61 -10.91,4.61 -3.84,0 -7.85,-1.38 -10.76,-4.3zm-91.92 -89.76l0 0c-5.99,-5.84 -6.14,-15.68 -0.3,-21.67 5.99,-6.15 15.67,-6.15 21.82,-0.31 5.99,5.99 6.15,15.68 0.15,21.82 -2.91,3.07 -6.92,4.61 -10.92,4.61 -3.84,0 -7.84,-1.54 -10.76,-4.46zm-91.9 -89.6l0 0c-6.01,-5.99 -6.15,-15.68 -0.32,-21.82 6.01,-5.99 15.69,-6.15 21.83,-0.15 6,5.84 6.15,15.68 0.31,21.67 -3.08,3.08 -7.07,4.62 -11.06,4.62 -3.84,0 -7.68,-1.38 -10.76,-4.31zm-95.91 -98.67l0 0c-1.38,-8.3 4.46,-16.14 12.76,-17.52 8.45,-1.23 16.29,4.45 17.68,12.91 1.23,8.3 -4.46,16.29 -12.92,17.52 -0.76,0.15 -1.53,0.15 -2.3,0.15 -7.53,0 -13.99,-5.38 -15.22,-13.06zm-19.68 -126.8l0 0c-1.23,-8.45 4.45,-16.29 12.92,-17.52 8.29,-1.39 16.29,4.45 17.52,12.75 1.38,8.45 -4.46,16.29 -12.91,17.52 -0.76,0.16 -1.54,0.31 -2.31,0.31 -7.37,0 -13.99,-5.53 -15.22,-13.06zm-19.51 -126.95l0 0c-1.38,-8.46 4.46,-16.29 12.76,-17.52 8.45,-1.23 16.29,4.46 17.51,12.91 1.38,8.3 -4.46,16.14 -12.76,17.52 -0.76,0 -1.53,0.16 -2.46,0.16 -7.37,0 -13.98,-5.38 -15.06,-13.07zm-19.68 -126.95l0 0c-1.23,-8.3 4.46,-16.13 12.91,-17.52 8.3,-1.23 16.15,4.46 17.53,12.91 1.23,8.45 -4.45,16.29 -12.91,17.52 -0.78,0.15 -1.55,0.15 -2.31,0.15 -7.53,0 -13.99,-5.38 -15.22,-13.07zm-19.51 -126.79l0 0c-1.38,-8.45 4.29,-16.29 12.76,-17.52 8.45,-1.39 16.29,4.46 17.52,12.75 1.38,8.46 -4.46,16.29 -12.76,17.52 -0.77,0.16 -1.53,0.31 -2.31,0.31 -7.52,0 -14.14,-5.53 -15.21,-13.06zm-19.68 -126.95l0 0c-1.23,-8.3 4.46,-16.29 12.91,-17.52 8.3,-1.23 16.13,4.46 17.51,12.91 1.23,8.3 -4.44,16.14 -12.91,17.52 -0.76,0.16 -1.53,0.16 -2.3,0.16 -7.53,0 -13.99,-5.38 -15.22,-13.06z"/>
    </g>
   </g>
   <g>
    <path class="fil4" d="M406.46 864.65c-9.31,23.19 -32.01,39.58 -58.53,39.58 -34.81,0 -63.05,-28.24 -63.05,-63.05 0,-16.7 6.58,-32.28 17.71,-43.79l0 -81.95 -0.46 -0.27c-38.11,-21.89 -38.11,-77 0,-98.89l196.84 -113.09c12.14,-6.97 25.9,-10.64 39.9,-10.64 14,0 27.76,3.67 39.9,10.64l196.83 113.09c38.11,21.89 38.11,77 0,98.89l-30.19 17.35 0 43.19c0,28.67 -15.34,55.16 -40.2,69.44l-126.44 72.65c-24.71,14.2 -55.1,14.2 -79.81,0l-92.51 -53.15z"/>
   </g>
   <g>
    <path class="fil3" d="M359.97 815.54l0 -74.34 -22.72 -13.05 0 86.75c-10.38,4.22 -17.71,14.38 -17.71,26.28 0,15.69 12.71,28.4 28.4,28.4 15.69,0 28.4,-12.72 28.4,-28.4 0,-11.37 -6.73,-21.11 -16.37,-25.64z"/>
    <path class="fil3" d="M538.88 836.2c-8.86,0 -17.61,-2.34 -25.31,-6.75l-125.49 -72.1 0 56.62c0.58,0.37 1.11,0.8 1.71,1.14l126.44 72.65c14.02,8.06 31.26,8.06 45.29,0l126.44 -72.65c14.11,-8.11 22.81,-23.13 22.81,-39.4l0 -30.48 -146.59 84.22c-7.69,4.42 -16.44,6.75 -25.3,6.75zm219.47 -189.89l-196.83 -113.09c-7.01,-4.03 -14.83,-6.04 -22.64,-6.04 -7.82,0 -15.63,2.01 -22.65,6.04l-196.84 113.09c-14.97,8.61 -14.97,30.21 0,38.82l208.32 119.69c3.46,1.98 7.31,2.97 11.16,2.97 3.85,0 7.7,-0.99 11.15,-2.97l208.32 -119.69c14.98,-8.6 14.98,-30.21 0,-38.82z"/>
   </g>
  </g>
 </g>
</svg>
